<?xml version="1.0" standalone="no"?>
<!DOCTYPE svg PUBLIC "-//W3C//DTD SVG 20010904//EN"
 "http://www.w3.org/TR/2001/REC-SVG-20010904/DTD/svg10.dtd">
<svg version="1.0" xmlns="http://www.w3.org/2000/svg"
 width="185.000000pt" height="64.000000pt" viewBox="0 0 185.000000 64.000000"
 preserveAspectRatio="xMidYMid meet">

<g transform="translate(0.000000,64.000000) scale(0.100000,-0.100000)"
fill="#000000" stroke="none">
<path d="M238 607 c-262 -74 -294 -434 -50 -554 114 -56 257 -29 343 64 45 49
64 87 80 163 9 43 8 61 -11 121 -47 157 -209 249 -362 206z m141 -13 c12 8 97
-34 126 -62 47 -46 58 -64 44 -73 -10 -6 -19 -1 -31 14 -31 43 -63 72 -78 72
-8 0 -14 5 -13 11 1 6 -9 10 -22 8 -14 -1 -27 1 -29 5 -3 4 -23 6 -45 5 -29
-1 -41 2 -41 11 0 16 61 25 71 11 4 -5 12 -6 18 -2z m-101 -5 c-2 -7 -23 -19
-46 -28 -42 -17 -132 -92 -132 -111 0 -5 -7 -7 -15 -4 -8 4 -15 12 -15 18 0
17 55 68 63 59 4 -3 7 0 7 8 0 16 46 46 88 59 39 12 54 11 50 -1z m137 -48
c52 -23 105 -79 128 -133 15 -38 18 -27 6 22 -2 8 2 15 10 15 18 0 39 -58 40
-107 1 -49 -26 -53 -32 -5 -3 29 -4 28 -5 -9 -7 -182 -187 -295 -347 -220 -88
41 -137 118 -137 216 0 95 51 177 135 219 54 27 146 28 202 2z m-325 -108 c0
-2 -5 -13 -10 -23 -9 -16 -17 -59 -19 -97 -1 -7 -8 -13 -17 -13 -10 0 -14 6
-10 18 3 9 8 33 10 52 5 29 12 68 15 77 2 4 31 -9 31 -14z m360 -343 c0 -21
-5 -25 -40 -37 -41 -15 -100 -17 -100 -4 0 5 17 12 38 16 20 3 48 13 62 20 30
17 40 18 40 5z m-230 -11 c0 -5 10 -9 23 -9 31 0 53 -15 37 -25 -6 -4 -16 -3
-22 3 -6 6 -16 8 -23 5 -15 -5 -55 13 -55 25 0 4 9 8 20 9 11 1 20 -2 20 -8z"/>
<path d="M288 513 c7 -3 16 -2 19 1 4 3 -2 6 -13 5 -11 0 -14 -3 -6 -6z"/>
<path d="M206 494 c-20 -19 -20 -25 -2 -18 8 3 17 12 20 20 7 18 1 18 -18 -2z"/>
<path d="M440 480 c0 -5 5 -10 11 -10 5 0 7 5 4 10 -3 6 -8 10 -11 10 -2 0 -4
-4 -4 -10z"/>
<path d="M420 446 c0 -2 8 -10 18 -17 15 -13 16 -12 3 4 -13 16 -21 21 -21 13z"/>
<path d="M126 404 c-9 -24 -2 -26 12 -4 7 11 8 20 3 20 -5 0 -12 -7 -15 -16z"/>
<path d="M292 328 c-14 -14 -16 -58 -3 -58 5 0 11 7 15 15 3 8 10 15 16 15 5
0 10 -7 10 -15 0 -8 5 -15 10 -15 6 0 10 10 10 23 0 24 -17 47 -35 47 -6 0
-16 -5 -23 -12z"/>
<path d="M375 219 c-16 -10 -25 -19 -19 -19 7 0 22 9 35 20 30 24 23 24 -16
-1z"/>
<path d="M257 209 c7 -7 15 -10 18 -7 3 3 -2 9 -12 12 -14 6 -15 5 -6 -5z"/>
<path d="M429 203 c-13 -16 -12 -17 4 -4 9 7 17 15 17 17 0 8 -8 3 -21 -13z"/>
<path d="M358 163 c7 -3 16 -2 19 1 4 3 -2 6 -13 5 -11 0 -14 -3 -6 -6z"/>
<path d="M1150 335 c0 -43 4 -75 10 -75 6 0 10 32 10 75 0 43 -4 75 -10 75 -6
0 -10 -32 -10 -75z"/>
<path d="M1395 400 c-3 -5 1 -10 9 -10 9 0 16 5 16 10 0 6 -4 10 -9 10 -6 0
-13 -4 -16 -10z"/>
<path d="M786 392 c-2 -4 -15 -34 -26 -66 -23 -59 -19 -86 6 -51 13 17 26 20
64 16 6 0 10 -8 10 -16 0 -8 6 -15 14 -15 12 0 10 13 -8 68 -21 62 -45 88 -60
64z m34 -64 c0 -11 -8 -18 -20 -18 -23 0 -23 0 -9 37 8 22 12 24 19 13 6 -8
10 -23 10 -32z"/>
<path d="M1323 370 c-8 -12 -9 -21 -3 -25 6 -3 10 -24 10 -46 0 -34 3 -39 22
-39 17 0 19 3 10 12 -16 16 -15 75 0 80 9 3 8 9 -4 21 -21 21 -21 21 -35 -3z"/>
<path d="M900 315 c0 -30 5 -55 10 -55 6 0 10 15 10 34 0 35 21 63 40 51 5 -3
10 -24 10 -46 0 -24 5 -39 13 -39 8 0 11 15 9 49 -4 54 -20 68 -53 51 -13 -7
-19 -7 -19 0 0 5 -4 10 -10 10 -5 0 -10 -25 -10 -55z"/>
<path d="M1043 363 c-23 -9 -14 -22 13 -20 40 3 42 -21 2 -25 -28 -2 -33 -7
-33 -28 0 -23 3 -25 55 -27 30 0 49 1 43 4 -7 2 -13 21 -13 42 0 52 -25 72
-67 54z m47 -61 c0 -10 -22 -32 -32 -32 -4 0 -8 9 -8 20 0 13 7 20 20 20 11 0
20 -4 20 -8z"/>
<path d="M1200 356 c0 -8 9 -35 20 -60 19 -46 19 -46 0 -59 -11 -6 -20 -15
-20 -19 0 -14 27 -8 42 10 18 20 61 132 54 139 -10 11 -26 -10 -32 -42 -8 -46
-18 -44 -33 5 -11 39 -31 55 -31 26z"/>
<path d="M1397 363 c-4 -3 -7 -28 -7 -55 0 -36 4 -48 15 -48 12 0 15 13 15 55
0 51 -7 65 -23 48z"/>
<path d="M1468 359 c-21 -12 -24 -69 -6 -87 15 -15 64 -16 73 -1 11 17 -3 23
-20 9 -30 -25 -58 23 -35 60 8 13 13 13 31 2 25 -16 37 -8 19 13 -14 17 -37
19 -62 4z"/>
<path d="M1584 355 c-18 -15 -17 -16 14 -10 25 5 32 3 32 -9 0 -10 -9 -16 -24
-16 -28 0 -51 -24 -43 -44 4 -11 20 -15 55 -14 l48 1 -6 45 c-10 60 -37 77
-76 47z m46 -59 c0 -8 -5 -18 -11 -22 -14 -8 -33 11 -25 25 10 16 36 13 36 -3z"/>
<path d="M60 44 c0 -14 22 -44 34 -44 2 0 -2 13 -10 30 -17 34 -24 38 -24 14z"/>
<path d="M576 35 c-3 -8 -1 -15 4 -15 6 0 10 7 10 15 0 8 -2 15 -4 15 -2 0 -6
-7 -10 -15z"/>
<path d="M465 20 c-3 -5 -1 -10 4 -10 6 0 11 5 11 10 0 6 -2 10 -4 10 -3 0 -8
-4 -11 -10z"/>
</g>
</svg>
